<?xml version="1.0" encoding="iso-8859-1"?>
<!-- Generator: Adobe Illustrator 16.0.0, SVG Export Plug-In . SVG Version: 6.00 Build 0)  -->
<!DOCTYPE svg PUBLIC "-//W3C//DTD SVG 1.1//EN" "http://www.w3.org/Graphics/SVG/1.1/DTD/svg11.dtd">
<svg version="1.1" id="Capa_1" xmlns="http://www.w3.org/2000/svg" xmlns:xlink="http://www.w3.org/1999/xlink" x="0px" y="0px"
	 width="40.392px" height="40.392px" viewBox="0 0 40.392 40.392" style="enable-background:new 0 0 40.392 40.392;"
	 xml:space="preserve">
<g>
	<path d="M39.108,29.128c-0.332-1.549-1.771-9.732-2.766-15.262c-0.996-5.53-2.321-10.341-3.263-12.553
		c-0.94-2.212-3.373-1.105-6.414-0.442c-3.042,0.664-7.133,1.051-13.99,2.931C5.819,5.682,3.497,7.064,1.948,8.06
		C0.4,9.055,1.174,10.991,1.395,11.599c0.221,0.608,2.401,6.671,3.207,9.953c0.774,3.152,3.981,13.99,4.921,16.865
		c0.94,2.876,3.042,1.936,5.143,1.327c2.102-0.607,5.419-1.549,9.29-2.543c3.871-0.996,7.465-1.106,9.732-1.438
		c2.267-0.332,2.985-1.271,4.533-2.102C39.77,32.831,39.44,30.676,39.108,29.128z M37.005,31.948
		c-1.051,0.828-2.433,1.603-6.415,2.155c-3.98,0.554-7.41,0.995-10.617,1.88c-3.207,0.886-4.534,1.659-5.861,1.99
		c-1.327,0.332-2.433,1.051-3.042-0.719c-0.609-1.771-5.97-20.182-6.911-22.836c-0.484-1.368-1.991-4.258-0.442-5.032
		C5.267,8.613,8.474,6.788,14.722,5.24c6.249-1.548,11.723-2.433,13.327-2.819c1.604-0.388,3.649-1.051,3.981,0.553
		s1.991,9.29,3.76,18.136C37.559,29.957,38.056,31.118,37.005,31.948z M11.238,15.027c0,0,1.77-0.608,2.599-0.94
		c0.829-0.331-0.498-3.373-0.719-4.147c-0.221-0.773-0.885-1.271-2.156-0.829C9.69,9.553,7.589,10.106,6.87,10.382
		c-0.719,0.276,0.387,3.152,1.051,4.535C8.584,16.299,9.8,15.414,11.238,15.027z M8.363,13.146
		c-0.144-0.803-0.995-1.824-0.166-2.045c0.83-0.222,2.765-0.554,3.208-0.72c0.442-0.165,0.829-0.165,1.05,0.72
		c0.221,0.885,0.83,1.99,0.166,2.267c-0.664,0.277-1.327,0.608-2.267,0.885C9.414,14.53,8.639,14.695,8.363,13.146z M14.059,26.252
		c-0.498,0.11-2.268,0.498-3.097,0.83c-0.83,0.332,0.059,2.136,0.166,2.543c0.553,2.102,1.217,2.157,1.604,2.102
		c0.387-0.056,1.438-0.332,2.654-0.719c1.217-0.387,0.332-1.88-0.055-3.318C14.943,26.252,14.556,26.142,14.059,26.252z
		 M14.501,29.957c-0.498,0.109-0.995,0.387-1.382,0.498c-0.387,0.109-0.719,0.275-0.995-1.327c-0.068-0.397-0.387-0.719,0.055-0.885
		c0.442-0.166,1.106-0.389,1.382-0.389c0.277,0,0.664,0,0.83,0.555C14.556,28.962,14.999,29.847,14.501,29.957z M33.632,22.437
		c-0.607-0.387-1.88,0.166-3.373,0.555c-1.492,0.387-2.819,0.606-4.921,0.994s-5.475,1.217-6.358,1.383
		c-0.884,0.166-0.447,1.697-0.387,2.434c0.221,2.709,2.046,1.604,6.414,0.663c4.369-0.939,5.31-1.327,7.688-1.714
		c2.377-0.387,1.604-1.771,1.548-2.269S34.242,22.824,33.632,22.437z M32.803,25.201c-0.607,0.166-2.321,0.442-4.533,1.051
		c-2.213,0.607-3.815,1.217-5.861,1.493c-2.046,0.275-2.82,0.498-2.82,0.166s-0.055-1.052-0.055-1.052
		c0.166-0.056,1.493-0.275,3.926-0.938c2.434-0.664,5.53-1.272,7.078-1.659s2.378-0.774,2.488-0.222
		C33.135,24.594,33.412,25.036,32.803,25.201z M23.901,19.728c2.433-0.719,8.072-1.77,9.179-2.102s0.885-1.548,0.553-2.488
		s-0.498-1.438-1.548-1.327s-3.373,0.664-6.69,1.383c-3.318,0.719-6.47,1.382-7.52,1.658c-1.051,0.276-0.409,1.535-0.387,2.544
		C17.542,21.994,21.468,20.445,23.901,19.728z M18.538,18.897c0-0.175-0.332-0.773,0.166-0.773c0.498,0,3.152-0.554,5.032-1.161
		c1.88-0.608,5.032-1.106,6.358-1.493c1.327-0.388,2.322-1.051,2.434-0.442c0.109,0.608,0.387,1.217-0.056,1.327
		c-0.441,0.11-4.258,0.442-6.636,1.216s-4.811,1.438-5.584,1.77C19.478,19.672,18.538,19.948,18.538,18.897z M11.847,23.377
		c0.94-0.222,1.77-0.664,2.986-1.051c1.216-0.388,0.276-2.544-0.111-3.815c-0.387-1.271-1.548-1.161-2.654-0.995
		s-2.765,0.829-3.263,0.995s0.426,2.367,0.553,2.931C9.966,24.15,10.906,23.598,11.847,23.377z M10.409,20.999
		c-0.131-0.634-1.05-1.493-0.332-1.604c0.718-0.111,1.216-0.442,2.322-0.608s1.217-0.442,1.327,0.498
		c0.111,0.938,0.719,2.102-0.11,2.267c-0.83,0.166-1.217,0.276-1.88,0.498C11.072,22.271,10.741,22.603,10.409,20.999z
		 M21.91,11.322c2.378-0.664,6.359-0.995,8.405-1.383c2.046-0.387,0.939-2.211,0.553-3.262c-0.387-1.051-0.442-0.94-1.77-0.885
		c-1.326,0.055-3.98,0.553-6.248,0.995c-2.268,0.442-6.415,1.548-7.188,1.88c-0.774,0.332-0.16,1.609-0.056,2.322
		c0.387,2.654,1.162,2.156,1.991,1.77C18.427,12.373,19.533,11.986,21.91,11.322z M16.491,10.824c0,0-0.553-0.829,0.056-0.829
		c0.608,0,1.382-0.387,2.267-0.719c0.885-0.332,3.539-0.774,5.143-1.217c1.604-0.442,3.318-0.663,4.479-0.885
		c1.16-0.221,1.105-0.553,1.382,0c0.275,0.554,0.332,0.995-0.498,1.438C28.491,9.055,27.275,9,24.674,9.608
		c-2.6,0.608-2.931,0.497-4.811,1.161C17.985,11.433,16.713,12.483,16.491,10.824z"/>
</g>
<g>
</g>
<g>
</g>
<g>
</g>
<g>
</g>
<g>
</g>
<g>
</g>
<g>
</g>
<g>
</g>
<g>
</g>
<g>
</g>
<g>
</g>
<g>
</g>
<g>
</g>
<g>
</g>
<g>
</g>
</svg>
